<svg xmlns="http://www.w3.org/2000/svg" width="1200" height="627" viewBox="0 0 1200 627">
  <rect width="1200" height="627" fill="#F9F8F6"/>
  <g opacity="0.03">
    <line x1="200" y1="0" x2="200" y2="627" stroke="#1C1C1E" stroke-width="1"/>
    <line x1="400" y1="0" x2="400" y2="627" stroke="#1C1C1E" stroke-width="1"/>
    <line x1="600" y1="0" x2="600" y2="627" stroke="#1C1C1E" stroke-width="1"/>
    <line x1="800" y1="0" x2="800" y2="627" stroke="#1C1C1E" stroke-width="1"/>
    <line x1="1000" y1="0" x2="1000" y2="627" stroke="#1C1C1E" stroke-width="1"/>
    <line x1="0" y1="157" x2="1200" y2="157" stroke="#1C1C1E" stroke-width="1"/>
    <line x1="0" y1="314" x2="1200" y2="314" stroke="#1C1C1E" stroke-width="1"/>
    <line x1="0" y1="471" x2="1200" y2="471" stroke="#1C1C1E" stroke-width="1"/>
  </g>
  <rect x="80" y="120" width="3" height="387" fill="#A07850" rx="1.5"/>
  <text x="120" y="170" font-family="sans-serif" font-size="13" font-weight="500" fill="#A07850" letter-spacing="3">FÜR ARCHITEKTEN &amp; PLANER</text>
  <text x="120" y="240" font-family="Georgia, serif" font-size="52" fill="#1C1C1E">Damit gebaut wird,</text>
  <text x="120" y="300" font-family="Georgia, serif" font-size="52" fill="#1C1C1E">was Sie gezeichnet haben.</text>
  <text x="120" y="355" font-family="sans-serif" font-size="18" font-weight="300" fill="#6E6E73">Ihr Entwurf. Unsere Einschätzung. 24 Stunden.</text>
  <rect x="120" y="400" width="130" height="44" rx="22" fill="#1C1C1E"/>
  <text x="185" y="427" font-family="sans-serif" font-size="15" font-weight="500" fill="#FFFFFF" text-anchor="middle">Wohnen</text>
  <rect x="265" y="400" width="140" height="44" rx="22" fill="none" stroke="#E5E5EA" stroke-width="2"/>
  <text x="335" y="427" font-family="sans-serif" font-size="15" font-weight="500" fill="#1C1C1E" text-anchor="middle">Arbeiten</text>
  <rect x="420" y="400" width="160" height="44" rx="22" fill="none" stroke="#E5E5EA" stroke-width="2"/>
  <text x="500" y="427" font-family="sans-serif" font-size="15" font-weight="500" fill="#1C1C1E" text-anchor="middle">Empfangen</text>
  <text x="120" y="490" font-family="sans-serif" font-size="13" font-weight="300" fill="#6E6E73">Gebaut wie gezeichnet · Zugesagt ist zugesagt · Einzelstück bis Gesamtprojekt</text>
  <text x="120" y="560" font-family="sans-serif" font-size="12" font-weight="300" fill="#6E6E73" opacity="0.5">IMS — Ihr Möbel Schreiner · Murrhardt bei Stuttgart</text>
  <g transform="translate(750, 140)">
    <rect x="0" y="0" width="340" height="420" rx="28" fill="#FFFFFF" stroke="#E5E5EA" stroke-width="1.5"/>
    <circle cx="170" cy="18" r="3" fill="#E5E5EA"/>
    <rect x="28" y="48" width="284" height="8" rx="4" fill="#1C1C1E" opacity="0.08"/>
    <rect x="28" y="68" width="180" height="8" rx="4" fill="#1C1C1E" opacity="0.05"/>
    <rect x="28" y="100" width="80" height="28" rx="14" fill="#1C1C1E"/>
    <text x="68" y="118" font-family="sans-serif" font-size="11" font-weight="500" fill="#FFFFFF" text-anchor="middle">Wohnen ✓</text>
    <rect x="28" y="148" width="284" height="90" rx="16" fill="none" stroke="#A07850" stroke-width="1.5"/>
    <text x="44" y="174" font-family="sans-serif" font-size="12" font-weight="300" fill="#6E6E73" opacity="0.6">Küchenzeile mit Kochinsel,</text>
    <text x="44" y="194" font-family="sans-serif" font-size="12" font-weight="300" fill="#6E6E73" opacity="0.6">offener Grundriss, Einzug Sept.</text>
    <rect x="28" y="258" width="56" height="28" rx="14" fill="#1C1C1E"/>
    <text x="56" y="276" font-family="sans-serif" font-size="10" font-weight="500" fill="#FFFFFF" text-anchor="middle">Sofort</text>
    <rect x="92" y="258" width="70" height="28" rx="14" fill="none" stroke="#E5E5EA" stroke-width="1"/>
    <text x="127" y="276" font-family="sans-serif" font-size="10" font-weight="400" fill="#6E6E73" text-anchor="middle">1–3 Mon.</text>
    <rect x="170" y="258" width="70" height="28" rx="14" fill="none" stroke="#E5E5EA" stroke-width="1"/>
    <text x="205" y="276" font-family="sans-serif" font-size="10" font-weight="400" fill="#6E6E73" text-anchor="middle">3–6 Mon.</text>
    <rect x="28" y="320" width="284" height="48" rx="16" fill="#1C1C1E"/>
    <text x="170" y="349" font-family="sans-serif" font-size="14" font-weight="500" fill="#FFFFFF" text-anchor="middle">Projekt einreichen →</text>
    <text x="170" y="390" font-family="sans-serif" font-size="10" font-weight="300" fill="#6E6E73" text-anchor="middle" opacity="0.5">Ersteinschätzung innerhalb 24h an Werktagen</text>
  </g>
</svg>
